<?xml version="1.0" encoding="UTF-8"?>
<!DOCTYPE svg PUBLIC "-//W3C//DTD SVG 1.1//EN" "http://www.w3.org/Graphics/SVG/1.1/DTD/svg11.dtd">
<!-- Creator: CorelDRAW X7 -->
<svg xmlns="http://www.w3.org/2000/svg" xml:space="preserve" width="42.4392mm" height="42.4392mm" version="1.1" style="shape-rendering:geometricPrecision; text-rendering:geometricPrecision; image-rendering:optimizeQuality; fill-rule:evenodd; clip-rule:evenodd"
viewBox="0 0 404 404"
 xmlns:xlink="http://www.w3.org/1999/xlink">
 <defs>
  <style type="text/css">
   <![CDATA[
    .fil0 {fill:black}
    .fil1 {fill:#44AC47;fill-rule:nonzero}
   ]]>
  </style>
 </defs>
 <g id="Слой_x0020_1">
  <metadata id="CorelCorpID_0Corel-Layer"/>
  <g id="_2642156582480">
   <circle class="fil0" cx="202" cy="202" r="202"/>
   <path class="fil1" d="M217 236l36 66 -50 0c-20,-37 14,-66 14,-66zm108 -134l0 0c-25,0 -55,3 -104,51 -6,6 -18,17 -32,31l-23 -42 -50 0 40 74c-24,24 -47,46 -47,46 -26,25 -37,34 -50,38 -1,1 -1,1 -1,2l14 0c15,0 58,0 109,-50 40,-40 72,-73 110,-110 25,-26 45,-35 54,-39l0 -1 -20 0z"/>
  </g>
 </g>
</svg>
